<svg width="1440" height="379" viewBox="0 0 1440 379" fill="none" xmlns="http://www.w3.org/2000/svg">
<g clip-path="url(#clip0_216_4)">
<rect width="1440" height="379" fill="#0D3060"/>
<path d="M965.328 0.0355084C953.376 4.40486 940.345 5.18641 927.926 6.64286C877.708 12.5042 828.175 26.003 777.093 22.3441C746.999 20.2127 717.084 15.4527 686.99 13.0371C673.634 11.9714 666.255 21.0297 661.287 32.6813C656.175 44.6171 652.216 60.7802 634.972 57.9384C613.193 54.315 607.038 36.3758 604.842 17.0157C604.518 14.2093 603.978 11.4385 603.546 8.66772C601.098 10.3018 598.362 11.6161 596.274 13.6409C563.912 45.0789 566.756 88.5239 611.285 107.209C678.746 135.486 716.004 188.628 753.154 244.862C768.166 267.561 788.901 286.637 818.887 272.534C849.81 257.934 844.05 227.775 838.362 202.98C823.099 136.658 842.034 70.7623 885.052 52.7165C923.858 36.4469 966.12 34.1023 1006.44 23.9071C1025.7 19.0405 1043.98 12.0779 1059.68 0.0710716H1135.49C1113.28 11.9714 1091.21 24.1203 1068.5 34.9549C1031.6 52.5389 991.103 57.5831 951.576 66.3573C891.531 79.6785 864.209 139.748 876.16 205.822C891.891 292.605 954.492 339.495 1018.17 387.665C1073.93 429.866 1123.68 476.437 1122.68 553.345C1122.06 601.834 1100.57 642.047 1066.63 675.758C1015.51 726.557 1022.02 782.363 1048.05 841.829C1073.97 901.011 1093.09 961.365 1069.4 1026.83C1060 1052.84 1038.62 1065.66 1018.17 1080.47C982.607 1106.3 981.599 1131.13 1020.55 1151.52C1068.32 1176.49 1090.13 1213.79 1099.82 1264.73C1111.91 1328.28 1165.84 1348.5 1228.8 1318.59C1273.08 1297.56 1308.89 1262.64 1355.19 1245.27C1383.7 1234.57 1411.92 1234.72 1439.89 1245.27V1286.72C1356.63 1247.43 1298.46 1298.23 1239.45 1345.66C1203.64 1374.43 1164.76 1387.25 1117.89 1377.06C1102.08 1373.61 1073.61 1368.67 1073.47 1394.32C1073.32 1419.79 1097.87 1417.98 1117.06 1420.96H1015.51C1018.17 1377.56 1038.01 1338.02 1045.1 1295.6C1054.96 1236.71 1024.44 1197.13 981.095 1163.71C966.336 1152.34 951.289 1141.04 935.233 1131.66C918.134 1121.68 895.707 1110.46 883.72 1133.62C871.372 1157.49 895.851 1168 912.806 1177.06C945.529 1194.5 986.387 1200.68 997.114 1245.34C1007.91 1290.35 991.211 1331.66 982.499 1374.18C979.331 1389.63 977.279 1405.3 974.867 1420.93H935.989C941.425 1404.66 946.933 1388.46 952.153 1372.12C965.904 1328.89 984.407 1284.66 948.013 1243.95C923.642 1216.71 887.932 1200.93 866.333 1170.63C836.778 1129.18 805.964 1089.71 755.962 1070C744.371 1065.45 727.884 1060.83 728.82 1045.73C729.828 1029.36 746.387 1022.57 759.562 1015.47C800.132 993.514 846.21 1000.19 889.336 991.489C911.403 987.048 934.369 981.329 942.433 957.173C948.589 938.772 936.853 923.675 922.85 914.297C895.203 895.789 866.441 878.631 836.886 863.214C765.466 826.021 702.109 780.552 666.543 705.989C657.003 686.024 649.372 664 662.187 642.544C669.207 630.786 682.238 626.31 696.061 628.122C721.44 631.461 741.923 645.741 762.838 658.92C806.216 686.202 848.478 718.99 901.431 722.116C957.948 725.455 999.922 686.522 1045.03 660.021C1083.22 637.571 1106.44 602.687 1099.21 556.826C1085.85 472.317 1032.57 414.343 963.06 369.228C941.065 354.948 915.686 341.804 889.156 355.659C864.713 368.411 868.169 393.917 872.884 415.266C883 460.949 865.937 488.125 825.943 512.991C774.609 544.962 773.637 571.782 815.395 607.909C845.67 634.09 880.912 661.407 922.778 654.125C986.999 642.97 1020.37 593.593 1021.23 524.998C1021.34 516.152 1019.36 504.359 1031.06 500.451C1034.77 499.208 1041.97 502.654 1045.06 506.135C1057.3 520.024 1062.13 537.147 1063.39 555.263C1066.84 605.778 1031.13 628.477 993.514 648.157C964.068 663.574 937.357 690.003 900.603 684.035C852.042 676.114 818.815 637.535 775.617 618.104C737.963 601.159 732.563 577.75 758.734 545.885C770.542 531.534 785.121 518.675 800.528 508.053C860.285 466.74 867.305 437.859 827.995 385.001C807.62 357.612 781.233 333.101 767.374 302.871C735.587 233.601 691.633 182.554 616.181 155.556C535.617 126.747 512.578 53.64 560.132 -5.47794e-05H965.328V0.0355084ZM731.735 674.977C721.188 664.711 703.297 650.181 691.669 665.172C674.966 686.699 697.105 704.212 710.605 718.564C768.022 779.628 840.99 821.013 908.883 868.863C935.701 887.796 960.684 910.602 968.604 943.923C975.875 974.473 950.425 984.384 929.186 995.858C922.85 999.268 912.086 1000.3 913.202 1008.75C913.598 1011.81 926.954 1014.97 934.405 1015.08C975.119 1015.68 1001.15 991.453 1001.15 942.715C997.546 895.789 960 858.028 915.974 828.224C849.198 783.074 789.153 730.855 731.735 674.977ZM845.094 732.027C843.042 731.388 840.846 731.246 838.722 730.89C839.478 733.128 839.802 735.65 841.062 737.569C868.277 777.994 913.202 797.141 950.821 824.707C1007.05 865.914 1040.64 944.847 1016.66 991.453C998.698 1026.37 968.388 1040.83 924.146 1040.76C901.827 1041.01 875.836 1031.88 849.45 1024.45C838.254 1021.29 823.207 1014.69 816.943 1027.58C810.824 1040.16 824.935 1047.69 834.906 1052.91C912.806 1093.87 1032.1 1083 1056.66 983.105C1071.23 923.71 1043.95 874.013 1007.45 829.894C965.22 778.918 907.479 751.245 845.094 732.027Z" fill="#DCEAFF" fill-opacity="0.08"/>
<path d="M893.835 1420.96H864.569C882.892 1399.05 897.111 1375.28 900.819 1345.97C905.427 1309.46 897.399 1275.78 870.545 1250.91C822.811 1206.79 792.644 1147.04 739.187 1108.5C699.193 1079.66 656.175 1087.15 615.677 1105.7C567.548 1127.72 521.974 1123.67 475.752 1102.64C472.872 1101.33 469.525 1101.01 466.393 1100.26C467.221 1103.46 467.617 1106.83 468.985 1109.82C485.076 1145.13 548.181 1158.98 596.382 1138.55C644.692 1118.09 693.001 1091.45 743.903 1132.87C778.605 1161.15 798.872 1200.65 825.799 1234.96C846.282 1261.04 874.756 1283.03 876.232 1319.19C878.248 1367.25 852.113 1398.48 813.343 1420.96H618.629C637.024 1414.71 655.347 1408.21 674.03 1402.95C709.417 1393.01 744.587 1408.53 779.937 1405.37C814.459 1402.31 840.018 1384.16 856.577 1354.68C866.765 1336.56 866.441 1317.77 854.093 1299.87C849.234 1292.83 842.898 1288.5 834.654 1289.74C824.791 1291.2 820.759 1299.33 818.599 1307.97C803.984 1366.58 786.921 1378.9 727.992 1362.81C689.51 1352.3 660.999 1372.12 629.969 1384.55C562.58 1411.62 495.983 1369.21 495.695 1297.81C495.623 1280.58 494.471 1263.31 492.851 1246.15C491.699 1234.18 489.36 1220.47 472.728 1222.78C457.537 1224.91 451.921 1238.77 452.389 1251.27C454.981 1320.5 468.445 1400.96 550.772 1420.96H489.612C447.098 1367.89 428.919 1307.01 435.578 1239.65C438.062 1214.47 452.137 1190.92 482.268 1195.29C514.882 1200.01 510.598 1230.77 514.018 1253.9C520.282 1295.78 514.234 1343.1 562.22 1366.54C593.898 1382.03 624.173 1371.41 649.876 1351.94C672.05 1335.18 693.397 1328.92 722.16 1331.91C785.697 1338.48 808.484 1307.33 793.076 1241.36C779.001 1181.11 729.468 1129.32 685.73 1130.24C653.079 1130.92 629.141 1153.58 600.666 1164.84C545.121 1186.76 500.375 1163.03 458.293 1130.03C394.324 1079.91 325.82 1039.52 242.016 1032.3C234.24 1031.63 224.989 1032.77 223.225 1041.26C221.245 1050.78 230.856 1053.41 237.948 1055.89C277.042 1069.53 317.972 1078.06 354.474 1098.66C409.156 1129.53 415.239 1176.6 406.024 1232.87C395.152 1299.26 410.415 1362.42 444.218 1420.96H412.071C386.153 1357.16 390.005 1289.53 386.765 1222.71C384.893 1183.81 376.361 1146.48 347.707 1117.45C288.454 1057.46 199.43 1059.98 133.625 1121.72C124.662 1130.1 112.89 1147.08 99.787 1136.21C86.5037 1125.23 99.751 1111.27 107.851 1100.26C113.358 1092.73 118.83 1085.06 125.202 1078.27C159.112 1042.25 189.459 1000.01 248.46 1005.66C284.278 1009.07 312.248 1030.99 343.135 1045.77C410.02 1077.81 477.48 1036.46 477.48 962.893C477.48 871.918 383.021 807.763 287.842 827.407C221.965 841.012 163.612 874.369 98.2031 887.867C61.3769 895.469 17.0631 870.639 7.88361 834.334C0.215988 803.926 21.6709 778.172 61.1249 767.692C117.102 752.773 169.264 731.849 206.126 683.431C244.86 632.527 258.719 630.786 313.472 668.405C358.974 699.665 405.736 713.875 460.597 694.124C510.778 676.042 531.621 689.328 532.089 741.938C532.701 809.468 564.236 852.842 626.693 876.749C680.402 897.317 708.553 947.369 695.053 1001.54C687.854 1030.42 664.383 1041.75 636.988 1035.57C612.545 1030.07 621.509 1008.47 624.929 992.661C634.252 949.713 630.977 911.348 591.019 883.498C565.748 865.879 541.809 846.838 529.822 817.105C520.678 794.441 510.958 771.884 493.607 753.98C455.341 714.479 403.648 721.121 355.626 716.361C253.283 706.202 168.688 753.98 83.8398 799.841C67.3166 808.757 47.5536 821.546 60.801 843.108C73.3643 863.534 95.2152 856.678 112.422 846.518C169.732 812.558 225.385 776.822 293.169 763.749C351.09 752.595 409.732 766.698 436.622 802.896C488.352 872.557 501.779 951.383 498.971 1035.32C497.243 1086.8 527.23 1110.03 576.727 1093.65C655.995 1067.44 728.244 1069.25 788.181 1134.65C819.211 1168.5 843.438 1208.5 881.344 1236.1C914.498 1260.22 929.906 1290.98 923.462 1332.3C918.638 1363.63 905.463 1391.98 893.835 1420.96Z" fill="#DCEAFF" fill-opacity="0.08"/>
<path d="M1295.07 79.5366C1225.23 140.814 1188.34 203.086 1245.97 286.601C1277.11 331.716 1346.8 347.133 1415.38 324.292C1423.4 321.627 1431.68 319.709 1439.93 317.649V393.491C1406.27 387.381 1372.5 381.875 1339.06 374.77C1251.15 356.156 1183.8 292.356 1176.75 207.74C1170.95 138.221 1217.68 93.0708 1273.51 57.1923C1289.1 47.1748 1311.59 37.1218 1302.34 12.7529C1299.46 5.15089 1294.14 1.49192 1287.84 -5.47794e-05H1335.57C1343.6 36.0205 1318.83 58.6845 1295.07 79.5366Z" fill="#DCEAFF" fill-opacity="0.08"/>
<path d="M994.774 114.03C1063.71 90.5487 1120.77 45.1501 1186.1 15.3106C1197.73 9.98215 1209.54 5.00889 1221.35 0.0356406H1270.05C1267.53 0.390873 1265.08 0.85266 1262.71 1.31446C1203.92 12.7174 1157.31 44.2976 1116.27 86.6057C1050.39 154.455 1064.68 303.368 1142.51 357.008C1185.74 386.812 1227.75 418.428 1268.97 450.861C1281.14 460.417 1292.41 479.635 1278.15 491.464C1263.36 503.719 1257.17 482.121 1248.35 473.24C1232.29 457.042 1217.68 438.605 1199.17 425.746C1127.72 376.12 1063.31 321.947 1045.64 231.079C1042.51 215.022 1035.42 198.362 1014.75 203.797C998.734 208.024 997.798 224.116 1000.71 238.006C1016.55 313.954 1067.71 365.072 1125.92 411.43C1159.11 437.859 1199.46 458.179 1215.34 500.878C1228.44 536.117 1209.83 570.396 1208.17 605.387C1206.8 634.303 1212.46 666.274 1193.34 690.714C1179.09 708.937 1154.21 719.203 1140.64 737.746C1104.21 787.479 1116.66 843.57 1130.34 896.677C1145.43 955.148 1158.85 1012.2 1144.67 1073.12C1131.42 1130.03 1132.22 1187.04 1158.71 1241.25C1163.32 1250.67 1170.52 1259.44 1182.54 1256.92C1194.96 1254.33 1196.58 1243.42 1196.54 1232.73C1196.33 1188.75 1182.97 1145.94 1187.54 1101.29C1191.83 1059.37 1220.2 1028.5 1252.56 1036.11C1308.75 1049.28 1370.78 1020.4 1390.79 967.368C1410.66 914.723 1399.57 857.246 1411.63 803.003C1417.32 777.426 1421.14 751.139 1440 731.281V814.725C1429.56 842.789 1427.04 872.557 1426.43 901.864C1424.52 994.082 1382.19 1053.58 1291.9 1081.61C1234.13 1099.55 1214.47 1137.88 1218.07 1215.14C1219.37 1242.6 1228.51 1275.04 1191 1282.67C1156.33 1289.74 1147.05 1257.95 1136.79 1233.61C1122.28 1199.23 1100.29 1170.81 1074.69 1143.71C1048.7 1116.21 1076.09 1096.25 1090.49 1076.21C1138.23 1009.75 1131.1 937.671 1099.82 871.349C1063.67 794.761 1079.26 737.853 1135.38 678.991C1192.19 619.347 1199.32 525.921 1156.33 468.836C1122.78 424.289 1070.48 398.784 1031.35 359.46C984.767 312.64 929.906 269.799 921.374 199.001C915.182 148.416 954.24 127.848 994.774 114.03Z" fill="#DCEAFF" fill-opacity="0.08"/>
<path d="M887.32 947.689C886.6 951.347 879.688 955.504 875.008 956.427C835.626 964.065 794.66 962.715 756.682 978.736C743.183 984.42 736.343 974.651 735.263 962.715C730.008 904.599 703.909 863.108 645.448 843.179C611.321 831.563 577.375 814.619 569.348 775.685C563.732 748.474 565.856 719.594 565.352 691.46C564.704 655.51 545.697 638.388 510.599 645.102C479.532 650.999 449.15 663.041 417.975 664.995C350.982 669.258 310.161 624.427 272.758 578.496C255.047 556.755 258.071 532.28 280.534 513.275C295.365 500.735 311.24 505.318 325.316 515.229C342.127 527.094 356.346 544.216 374.777 551.924C470.425 591.995 563.336 572.812 648.652 524.962C724.644 482.37 741.203 424.396 706.609 367.204C674.57 314.274 619.493 298.999 565.568 281.131C493.463 257.259 430.215 223.903 410.704 141.809C400.192 97.5113 377.585 60.2475 327.476 52.539C282.19 45.5764 253.499 75.2026 225.133 104.438C201.158 129.127 178.911 156.977 144.965 169.233C85.7477 190.653 41.7939 161.418 0 126.392V75.3448C12.3834 93.2129 23.7948 111.863 42.4779 124.58C97.7711 162.235 145.037 153.318 186.795 99.8559C215.089 63.5867 245.508 28.9159 281.83 0.0355084H417.723C397.6 83.6217 435.506 148.167 493.247 204.472C530.11 240.421 581.263 253.636 625.937 277.188C685.19 308.413 735.155 348.518 748.403 418.392C758.086 469.617 721.296 494.554 686.342 520.415C661.035 539.136 628.745 552.137 623.165 588.549C622.265 594.339 625.469 600.733 626.765 606.843C629.681 605.458 633.352 604.747 635.368 602.58C639.976 597.572 643.504 591.639 647.86 586.382C675.434 553.381 710.748 528.976 744.047 502.369C789.585 465.958 788.181 421.98 751.822 358.713C704.197 275.944 625.001 234.773 545.949 192.074C487.848 160.672 433.742 72.1122 465.709 0.0710716H510.814C470.173 83.5862 515.386 171.506 598.902 199.498C635.656 211.825 676.118 217.97 701.281 252.57C730.584 292.818 746.387 341.378 781.629 378.18C798.296 395.587 816.115 414.201 813.235 440.95C809.42 476.26 778.065 490.576 754.774 510.54C711.684 547.484 659.307 578.069 641.236 634.8C616.865 711.21 658.119 769.575 706.861 822.931C752.938 873.338 817.987 895.043 875.044 928.861C881.956 932.946 889.084 938.879 887.32 947.689ZM653.223 781.546C629.645 739.451 621.329 693.591 614.201 646.665C605.778 591.035 563.912 565.103 508.367 587.59C434.75 617.429 373.517 609.188 318.8 552.066C312.608 545.601 299.721 536.152 294.357 545.53C285.106 561.693 299.469 575.405 309.693 587.092C361.926 646.629 423.411 656.434 496.487 625.528C524.566 613.664 563.732 597.11 580.867 642.793C589.615 666.131 588.751 693.023 592.206 718.28C593.682 748.51 591.774 780.232 616.469 803.571C626.945 813.446 641.02 823.038 654.519 814.441C667.803 806.022 659.019 791.919 653.223 781.546Z" fill="#DCEAFF" fill-opacity="0.08"/>
<path d="M674.822 421.945C665.175 431.145 652.575 406.421 642.532 395.8C620.861 372.923 595.806 359.708 564.524 372.497C535.221 384.468 506.747 391.537 475.68 379.708C411.747 355.339 356.958 311.539 286.798 299.283C226.789 288.804 157.924 321.379 139.277 378.571C124.626 423.437 136.577 471.287 125.166 516.756C106.915 589.401 72.7164 649.755 0 681.016V647.269C54.9692 620.662 79.916 571.32 93.7393 516.472C112.422 442.3 123.186 366.138 98.8151 291.504C83.8398 245.714 44.4938 221.949 0 206.958V177.865C102.127 253.103 182.619 228.379 258.287 142.342C298.245 96.9074 339.859 96.7297 362.286 152.501C395.836 235.91 447.818 296.512 537.633 321.912C580.651 334.06 628.961 334.842 661.539 371.857C674.282 386.351 690.158 407.345 674.822 421.945ZM512.65 338.146C453.613 307.525 407.752 258.538 350.658 225.395C330.283 213.566 307.821 207.74 281.182 207.598C242.772 209.054 205.802 223.548 171.927 245.998C164.692 250.794 154.648 258.005 160.516 268.946C168.256 283.44 182.619 281.806 194.858 276.868C286.006 239.959 357.57 282.552 428.487 330.97C452.389 347.311 477.156 363.722 508.907 361.129C515.638 360.596 521.758 357.541 521.686 352.177C521.686 347.382 517.15 340.455 512.65 338.146Z" fill="#DCEAFF" fill-opacity="0.08"/>
<path d="M609.954 505.105C541.089 534.092 468.301 523.648 396.7 518.142C382.121 517.041 366.822 503.719 369.666 486.348C371.573 474.874 387.305 476.615 396.556 478.853C448.394 491.251 500.591 498.959 553.796 490.682C569.564 488.231 593.826 490.043 593.79 467.876C593.718 444.822 570.715 446.562 554.228 447.983C505.415 452.246 457.321 457.504 409.012 440.985C307.713 406.35 248.172 431.927 223.009 534.767C193.274 656.221 117.966 719.487 0 742.009V722.649C0.79196 722.542 1.58392 722.365 2.37588 722.116C101.803 690.856 181.215 574.943 186.255 455.87C187.875 417.789 195.146 379.743 232.296 358.749C274.81 334.735 314.66 352.888 350.514 375.374C417.003 417.043 481.512 456.544 566.108 422.442C589.039 413.206 618.629 423.899 631.012 450.328C641.668 473.098 631.264 496.117 609.954 505.105Z" fill="#DCEAFF" fill-opacity="0.08"/>
<path d="M427.767 1009.11C409.66 1035.18 371.645 1038.38 338.563 1015.22C311.564 996.32 289.03 970.175 252.671 967.83C195.614 964.171 159.184 998.913 123.078 1034.83C73.9763 1083.64 59.649 1086.51 0 1056.43V1008.9C56.5532 1036.6 98.5991 1001.08 143.705 975.113C223.765 929.003 275.35 934.509 353.466 994.046C364.374 1002.36 379.205 1013.97 390.436 1001.36C404.008 986.089 392.416 968.718 380.393 957.067C326.468 904.705 260.951 903.356 191.87 916.393C145.505 925.131 108.463 955.93 63.2848 966.871C40.102 972.484 19.763 964.669 0.0359982 954.438V910.78C22.1029 928.506 46.7257 942.964 75.6682 934.19C121.89 920.194 165.88 898.667 212.389 885.914C276.862 868.223 342.667 854.653 404.26 897.85C438.818 922.112 450.733 976.036 427.767 1009.11Z" fill="#DCEAFF" fill-opacity="0.08"/>
<path d="M1439.93 676.22C1430.71 686.131 1420.96 695.687 1413.76 706.877C1375.78 765.668 1374.66 833.517 1367.93 899.661C1361.81 959.873 1310.77 1001.68 1251.66 993.052C1201.44 985.698 1164.33 936.463 1162.17 877.424C1160.8 839.734 1152.63 801.475 1176.82 767.55C1189.85 749.291 1217.46 748.794 1228.87 728.404C1245.47 698.848 1235.13 666.487 1237.26 635.439C1240.03 594.73 1251.33 558.39 1287.4 534.447C1340.61 499.137 1376.18 503.861 1439.86 554.944V676.22H1439.93ZM1379.09 532.671C1340.21 522.298 1310.26 539.314 1287.3 569.082C1266.85 595.582 1263.39 627.269 1263.11 659.418C1262.96 695.829 1273.87 735.65 1239.35 763.11C1219.73 778.74 1191.43 782.115 1182.65 812.31C1164.76 873.694 1198.13 947.902 1252.95 962.822C1295.9 974.509 1335.64 940.264 1349.54 881.26C1364.04 819.734 1357.31 753.519 1390.65 696.291C1406.7 668.725 1428.77 643.752 1429.85 610.005C1430.96 573.132 1418.29 543.115 1379.09 532.671Z" fill="#DCEAFF" fill-opacity="0.08"/>
<path d="M293.925 1420.96H233.268C221.641 1399.37 208.718 1378.3 199.394 1355.78C183.519 1317.49 195.542 1286.79 230.424 1263.99C243.744 1255.28 260.123 1247.65 260.447 1228.64C260.519 1223.92 255.011 1216.1 250.583 1214.82C230.065 1208.93 213.325 1219.09 199.682 1232.3C144.461 1285.73 135.461 1351.87 173.187 1418.37C173.655 1419.19 174.051 1420.08 174.411 1420.96H147.089C119.694 1362.96 132.941 1269.03 176.967 1222.43C198.71 1199.41 224.377 1180.9 258.143 1194.89C287.086 1206.9 288.67 1234.86 287.446 1260.83C285.034 1314.47 281.362 1368.03 293.925 1420.96Z" fill="#DCEAFF" fill-opacity="0.08"/>
<path d="M1439.93 1198.3C1393.99 1174.82 1355.91 1194.86 1317.03 1221.32C1300.9 1232.3 1279.38 1265.09 1259.61 1232.58C1244.21 1207.33 1252.52 1175.14 1273.87 1150.95C1301.77 1119.37 1343.74 1111.02 1378.59 1090.85C1402.2 1077.14 1421.79 1059.3 1439.96 1039.69V1198.3H1439.93Z" fill="#DCEAFF" fill-opacity="0.08"/>
<path d="M369.918 1420.96H341.623C340.111 1416.67 338.563 1412.37 337.447 1407.96C321.896 1347.15 334.567 1284.41 324.776 1223.14C318.08 1181.29 285.754 1141.61 247.164 1134.93C212.173 1128.89 182.403 1143.31 163.36 1171.84C112.926 1247.47 88.7356 1330.03 101.839 1420.96H71.9964C70.9885 1415.85 69.7285 1410.7 70.0885 1405.69C76.8922 1314.93 104.575 1228.54 152.704 1153.19C191.654 1092.2 262.391 1073.87 319.304 1142.14C356.634 1186.97 361.278 1240.15 361.71 1295.03C362.07 1337.13 356.238 1379.79 369.918 1420.96Z" fill="#DCEAFF" fill-opacity="0.08"/>
<path d="M1188.77 79.8561C1117.02 166.604 1122.28 260.74 1201.55 340.419C1267.42 406.634 1354.65 421.767 1439.96 442.122V503.257C1353.21 475.585 1285.57 415.906 1211.05 367.807C1085.13 286.53 1082.83 133.141 1205.58 50.7271C1209.61 48.0273 1214.18 46.0735 1218.5 43.8001C1215.7 47.3879 1212.96 51.0467 1210.04 54.5635C1202.99 63.0181 1195.75 71.3661 1188.77 79.8561Z" fill="#DCEAFF" fill-opacity="0.08"/>
<path d="M1301.34 132.963C1344.64 99.0033 1383.41 60.8869 1377.11 0.0356406H1416.39C1407.24 63.6577 1370.6 110.051 1319.91 148.736C1293.99 168.522 1276.93 195.307 1286.72 229.373C1296.55 263.476 1322.97 277.259 1357.78 275.554C1389.42 273.991 1413.54 254.666 1439.93 240.776V274.95C1425.42 280.172 1410.66 284.825 1396.84 291.433C1349.32 314.203 1295.97 302.232 1271.71 262.41C1245.9 220.031 1260.26 165.148 1301.34 132.963Z" fill="#DCEAFF" fill-opacity="0.08"/>
<path d="M55.6532 501.126C48.6336 537.964 34.1263 572.315 0 593.664V543.718C28.7986 506.206 32.2544 461.695 32.9384 416.652C33.4063 385.534 24.1548 358.145 0 337.435V261.557C21.4189 269.55 35.7822 285.784 45.6097 305.322C77.5761 368.873 68.1446 435.408 55.6532 501.126Z" fill="#DCEAFF" fill-opacity="0.08"/>
<path d="M77.9001 1255C64.4728 1310.35 31.8224 1361.32 36.9342 1420.96H15.4432C9.71951 1379.69 28.4386 1343.38 41.2179 1305.98C62.7449 1242.96 48.7776 1188.25 0 1147.12V1104.2C52.7374 1115.43 92.6594 1194.26 77.9001 1255Z" fill="#DCEAFF" fill-opacity="0.08"/>
<path d="M48.8136 0.0353762C57.9931 37.3348 78.0081 65.5757 121.926 63.693C160.3 62.0234 177.003 26.074 201.482 3.01938C202.49 2.09578 203.426 1.06555 204.326 0.0353762H229.885C218.653 13.8894 207.674 27.9212 195.686 41.1003C170.883 68.2756 151.3 104.332 109.255 107.316C53.3133 111.33 29.4465 55.0608 16.2712 0.0353762H48.8136Z" fill="#DCEAFF" fill-opacity="0.08"/>
<path d="M1439.93 1392.16C1422 1380.15 1406.09 1364.87 1384.09 1359.37C1337.26 1347.61 1303.53 1371.09 1271.31 1399.37C1262.85 1406.79 1254.11 1413.86 1245.39 1421H1170.59C1204.93 1415.74 1233.44 1397.06 1260.87 1376.17C1315.09 1334.86 1369.66 1295.92 1439.93 1337.77V1392.16Z" fill="#DCEAFF" fill-opacity="0.08"/>
<path d="M1310.87 1420.96C1324.77 1406.68 1339.64 1393.4 1360.88 1391.84C1384.17 1390.13 1398.13 1405.05 1411.06 1420.96H1310.87Z" fill="#DCEAFF" fill-opacity="0.08"/>
<path d="M14.1473 1288.43C11.8074 1306.08 9.82751 1324.41 0 1340.11V1200.83C0.179991 1201 0.323984 1201.18 0.467977 1201.36C16.8472 1228.54 18.1071 1258.45 14.1473 1288.43Z" fill="#DCEAFF" fill-opacity="0.08"/>
<path d="M157.816 0.0353762C149.573 12.9658 138.809 23.8005 122.754 24.4044C106.195 25.0083 96.5112 14.067 90.7515 0.0353762H157.816Z" fill="#DCEAFF" fill-opacity="0.08"/>
<path d="M979.943 516.01C976.595 489.368 978.719 453.383 941.137 438.996C916.982 429.724 922.418 452.317 920.582 464.573C915.614 497.29 896.067 519.918 870.113 538.603C860.573 545.459 844.986 550.681 847.686 564.357C851.394 583.078 869.465 591.142 885.844 597.003C943.909 617.82 979.943 588.442 979.943 516.01Z" fill="#DCEAFF" fill-opacity="0.08"/>
<path d="M590.767 962.147C591.882 933.124 583.279 910.176 551.708 902.006C532.197 896.961 528.526 910.744 528.814 924.03C529.714 962.928 531.801 1001.79 534.429 1040.62C535.077 1050.14 538.029 1062 550.557 1062.61C568.52 1063.49 572.767 1047.69 577.591 1035.36C586.663 1011.95 591.019 987.368 590.767 962.147Z" fill="#DCEAFF" fill-opacity="0.08"/>
<path d="M674.318 1166.97C641.38 1187.22 600.018 1206.37 566.9 1234.86C537.417 1260.22 546.417 1321.5 576.043 1333.58C604.554 1345.23 622.805 1322.74 642.388 1308.53C665.031 1292.12 688.358 1285.62 716.868 1290.35C756.754 1296.95 767.122 1282.96 754.594 1239.12C744.263 1202.99 722.808 1175.89 674.318 1166.97Z" fill="#DCEAFF" fill-opacity="0.08"/>
<path d="M731.987 55.7359C702.145 57.4055 698.473 72.6805 710.1 94.6339C725.976 124.687 742.499 154.455 759.562 183.833C764.71 192.713 771.801 203.797 783.897 201.026C798.152 197.758 803.192 183.371 802.4 171.542C800.312 140.281 802.76 107.316 781.701 80.3179C769.102 64.1904 751.102 57.5832 731.987 55.7359Z" fill="#DCEAFF" fill-opacity="0.08"/>
<path d="M1301.16 669.293C1302.13 713.519 1309.33 759.025 1273.9 795.614C1258.17 811.848 1230.2 813.446 1220.81 836.43C1208.86 865.665 1230.17 905.025 1264.76 910.567C1302.92 916.677 1306.16 881.58 1313.36 857.566C1331.79 796.004 1325.53 728.546 1357.89 670.146C1369.48 649.187 1386.18 630.573 1390.07 606.168C1392.3 592.172 1388.02 578.496 1372.76 573.807C1345.5 565.494 1328.87 581.409 1315.45 601.763C1301.84 622.331 1299.9 645.528 1301.16 669.293Z" fill="#DCEAFF" fill-opacity="0.08"/>
</g>
<defs>
<clipPath id="clip0_216_4">
<rect width="1440" height="379" fill="white"/>
</clipPath>
</defs>
</svg>
