<svg width="656" height="504" viewBox="0 0 656 504" fill="none" xmlns="http://www.w3.org/2000/svg">
<g clip-path="url(#clip0_203_303)">
<rect width="656" height="504" fill="#EBF3FF"/>
<path d="M439.782 570C434.338 567.983 428.401 567.622 422.743 566.95C399.865 564.244 377.298 558.012 354.027 559.701C340.316 560.685 326.688 562.883 312.978 563.998C306.893 564.49 303.531 560.308 301.268 554.929C298.939 549.418 297.135 541.956 289.28 543.268C279.358 544.941 276.553 553.223 275.553 562.161C275.405 563.457 275.159 564.736 274.962 566.015C273.847 565.261 272.601 564.654 271.65 563.719C256.906 549.205 258.202 529.148 278.488 520.521C309.222 507.467 326.196 482.933 343.121 456.971C349.96 446.492 359.406 437.685 373.067 444.196C387.155 450.936 384.531 464.86 381.94 476.307C374.986 506.926 383.612 537.348 403.21 545.679C420.89 553.19 440.143 554.273 458.511 558.979C467.285 561.226 475.616 564.441 482.767 569.984H517.305C507.186 564.49 497.133 558.881 486.785 553.879C469.975 545.761 451.525 543.432 433.518 539.382C406.162 533.232 393.715 505.499 399.16 474.995C406.326 434.93 434.846 413.282 463.858 391.044C489.261 371.56 511.926 350.06 511.467 314.554C511.188 292.168 501.397 273.603 485.932 258.039C462.644 234.587 465.612 208.823 477.47 181.37C489.278 154.047 497.986 126.183 487.195 95.9583C482.914 83.9535 473.173 78.0331 463.858 71.1943C447.654 59.2715 447.195 47.8079 464.94 38.3943C486.703 26.8651 496.641 9.64509 501.053 -13.8725C506.563 -43.2121 531.13 -52.5437 559.814 -38.7349C579.986 -29.0261 596.304 -12.9049 617.394 -4.88531C630.383 0.0510931 643.241 -0.0145068 655.984 -4.88531V-24.0241C618.05 -5.88571 591.548 -29.3377 564.668 -51.2317C548.35 -64.5157 530.638 -70.4361 509.286 -65.7293C502.086 -64.1385 489.114 -61.8589 489.048 -73.6997C488.982 -85.4585 500.167 -84.6221 508.908 -85.9997H462.644C463.858 -65.9589 472.894 -47.7057 476.125 -28.1241C480.618 -0.932909 466.711 17.3367 446.966 32.7691C440.242 38.0171 433.386 43.2323 426.072 47.5619C418.282 52.1703 408.065 57.3527 402.604 46.6599C396.978 35.6391 408.13 30.7847 415.855 26.6027C430.762 18.5503 449.376 15.6967 454.264 -4.91811C459.184 -25.6969 451.574 -44.7701 447.605 -64.4009C446.162 -71.5349 445.227 -78.7673 444.128 -85.9833H426.416C428.893 -78.4721 431.402 -70.9937 433.78 -63.4497C440.045 -43.4909 448.474 -23.0729 431.894 -4.27851C420.791 8.30029 404.522 15.5819 394.682 29.5711C381.218 48.7099 367.18 66.9303 344.4 76.0323C339.119 78.1315 331.608 80.2635 332.034 87.2335C332.494 94.7939 340.038 97.9263 346.04 101.206C364.523 111.341 385.515 108.258 405.162 112.276C415.215 114.326 425.678 116.967 429.352 128.119C432.156 136.614 426.81 143.584 420.43 147.913C407.835 156.458 394.732 164.379 381.267 171.497C348.73 188.668 319.866 209.66 303.662 244.083C299.316 253.3 295.84 263.468 301.678 273.374C304.876 278.802 310.813 280.868 317.11 280.032C328.672 278.49 338.004 271.897 347.532 265.813C367.294 253.218 386.548 238.081 410.672 236.638C436.42 235.096 455.543 253.07 476.092 265.305C493.492 275.67 504.07 291.774 500.774 312.947C494.69 351.962 470.418 378.727 438.749 399.555C428.729 406.148 417.167 412.216 405.08 405.82C393.944 399.932 395.519 388.157 397.667 378.301C402.276 357.21 394.502 344.664 376.282 333.184C352.895 318.424 352.452 306.042 371.476 289.363C385.269 277.277 401.324 264.665 420.398 268.027C449.655 273.177 464.858 295.973 465.252 327.641C465.301 331.725 464.399 337.17 469.729 338.974C471.418 339.548 474.698 337.957 476.108 336.35C481.684 329.937 483.882 322.032 484.456 313.668C486.03 290.348 469.762 279.868 452.624 270.782C439.208 263.665 427.04 251.463 410.295 254.218C388.172 257.875 373.034 275.686 353.354 284.657C336.2 292.48 333.74 303.287 345.663 317.998C351.042 324.623 357.684 330.56 364.703 335.464C391.927 354.537 395.125 367.87 377.216 392.273C367.934 404.918 355.913 416.234 349.599 430.19C335.118 462.17 315.093 485.737 280.719 498.201C244.016 511.502 233.52 545.253 255.184 570.017H439.782V570ZM333.363 258.4C328.558 263.14 320.407 269.848 315.11 262.927C307.5 252.988 317.586 244.903 323.736 238.277C349.894 210.086 383.137 190.98 414.067 168.889C426.285 160.148 437.667 149.619 441.275 134.236C444.588 120.132 432.993 115.556 423.317 110.259C420.43 108.685 415.527 108.209 416.035 104.306C416.216 102.895 422.3 101.436 425.695 101.387C444.243 101.108 456.1 112.293 456.1 134.794C454.46 156.458 437.355 173.891 417.298 187.651C386.876 208.495 359.521 232.603 333.363 258.4ZM385.006 232.062C384.072 232.357 383.071 232.423 382.104 232.587C382.448 231.554 382.596 230.389 383.17 229.504C395.568 210.84 416.035 202.001 433.173 189.274C458.79 170.25 474.091 133.809 463.169 112.293C454.985 96.1715 441.176 89.4967 421.021 89.5295C410.853 89.4147 399.012 93.6295 386.991 97.0571C381.89 98.5167 375.035 101.567 372.182 95.6139C369.394 89.8083 375.822 86.3315 380.365 83.9207C415.855 65.0115 470.204 70.0299 481.389 116.147C488.031 143.567 475.6 166.511 458.97 186.88C439.733 210.414 413.428 223.189 385.006 232.062Z" fill="#DCEAFF" fill-opacity="0.4"/>
<path d="M407.212 -85.9997H393.879C402.226 -75.8809 408.704 -64.9093 410.394 -51.3793C412.493 -34.5201 408.836 -18.9729 396.601 -7.49291C374.855 12.8759 361.112 40.4607 336.758 58.2547C318.537 71.5715 298.939 68.1111 280.489 59.5503C258.562 49.3823 237.8 51.2519 216.742 60.9607C215.43 61.5675 213.905 61.7151 212.478 62.0595C212.856 60.5835 213.036 59.0255 213.659 57.6479C220.99 41.3463 249.739 34.9503 271.699 44.3803C293.708 53.8267 315.716 66.1267 338.906 47.0043C354.716 33.9499 363.949 15.7131 376.216 -0.129318C385.548 -12.1669 398.52 -22.3185 399.192 -39.0137C400.111 -61.2029 388.204 -75.6185 370.542 -85.9997H281.834C290.214 -83.1133 298.562 -80.1121 307.074 -77.6849C323.195 -73.0929 339.218 -80.2597 355.322 -78.8001C371.05 -77.3897 382.694 -69.0093 390.238 -55.3973C394.879 -47.0333 394.732 -38.3577 389.106 -30.0921C386.892 -26.8449 384.006 -24.8441 380.25 -25.4181C375.757 -26.0905 373.92 -29.8461 372.936 -33.8313C366.278 -60.8913 358.504 -66.5821 331.657 -59.1529C314.126 -54.2985 301.137 -63.4497 287 -69.1897C256.299 -81.6865 225.959 -62.1049 225.828 -29.1409C225.795 -21.1869 225.27 -13.2165 224.532 -5.29531C224.008 0.231489 222.942 6.5619 215.365 5.4959C208.444 4.5119 205.886 -1.88411 206.099 -7.65691C207.28 -39.6205 213.413 -76.7665 250.92 -85.9997H223.056C203.688 -61.4981 195.406 -33.3885 198.44 -2.29411C199.572 9.33349 205.984 20.2067 219.711 18.1895C234.569 16.0083 232.618 1.80589 234.176 -8.87051C237.029 -28.2061 234.274 -50.0509 256.135 -60.8749C270.567 -68.0253 284.36 -63.1217 296.069 -54.1345C306.172 -46.3937 315.897 -43.5073 329 -44.8849C357.946 -47.9189 368.328 -33.5361 361.308 -3.08131C354.896 24.7331 332.33 48.6443 312.404 48.2179C297.529 47.9063 286.623 37.4431 273.65 32.2443C248.345 22.1255 227.96 33.0807 208.788 48.3163C179.646 71.4567 148.436 90.1035 110.257 93.4327C106.715 93.7443 102.5 93.2195 101.696 89.2999C100.794 84.9047 105.173 83.6911 108.404 82.5431C126.214 76.2455 144.861 72.3095 161.491 62.7975C186.402 48.5459 189.174 26.8159 184.976 0.838287C180.023 -29.8133 186.976 -58.9725 202.376 -85.9997H187.731C175.923 -56.5453 177.678 -25.3197 176.202 5.52869C175.349 23.4867 171.462 40.7231 158.408 54.1219C131.413 81.8215 90.856 80.6571 60.8768 52.1539C56.7932 48.2835 51.4304 40.4443 45.4608 45.4627C39.4092 50.5303 45.4444 56.9755 49.1344 62.0595C51.6436 65.5363 54.1364 69.0787 57.0392 72.2111C72.488 88.8407 86.3132 108.34 113.193 105.733C129.511 104.158 142.254 94.0395 156.325 87.2171C186.796 72.4243 217.53 91.5139 217.53 125.478C217.53 167.479 174.496 197.097 131.134 188.028C101.122 181.747 74.538 166.347 44.7392 160.115C27.962 156.605 7.7736 168.069 3.5916 184.83C0.0983996 198.868 9.8728 210.758 27.8472 215.596C53.3492 222.484 77.1128 232.144 93.9064 254.497C111.553 277.998 117.867 278.802 142.811 261.434C163.541 247.002 184.844 240.442 209.838 249.561C232.7 257.908 242.195 251.775 242.408 227.486C242.687 196.31 257.054 176.285 285.508 165.248C309.976 155.753 322.801 132.645 316.651 107.635C313.371 94.3019 302.678 89.0703 290.198 91.9239C279.062 94.4659 283.146 104.437 284.704 111.735C288.952 131.563 287.459 149.275 269.255 162.132C257.742 170.267 246.836 179.057 241.375 192.784C237.21 203.247 232.782 213.661 224.877 221.927C207.444 240.163 183.893 237.097 162.016 239.294C115.39 243.985 76.8504 221.927 38.1956 200.754C30.668 196.638 21.6644 190.734 27.6996 180.779C33.4232 171.349 43.378 174.514 51.2172 179.205C77.326 194.883 102.68 211.381 133.562 217.417C159.949 222.566 186.665 216.056 198.916 199.344C222.482 167.184 228.6 130.792 227.32 92.0387C226.533 68.2751 240.194 57.5495 262.744 65.1099C298.857 77.2131 331.772 76.3767 359.078 46.1843C373.215 30.5551 384.252 12.0887 401.521 -0.654106C416.626 -11.7897 423.645 -25.9921 420.709 -45.0653C418.512 -59.5301 412.509 -72.6173 407.212 -85.9997Z" fill="#DCEAFF" fill-opacity="0.4"/>
<path d="M590.006 533.297C558.19 505.007 541.38 476.258 567.637 437.701C581.823 416.873 613.573 409.756 644.815 420.301C648.472 421.531 652.244 422.417 656 423.368V388.354C640.666 391.175 625.283 393.717 610.047 396.997C569.998 405.59 539.314 435.045 536.1 474.109C533.459 506.204 554.746 527.049 580.183 543.613C587.284 548.238 597.534 552.879 593.319 564.129C592.007 567.639 589.58 569.328 586.71 570.017H608.456C612.114 553.387 600.83 542.924 590.006 533.297Z" fill="#DCEAFF" fill-opacity="0.4"/>
<path d="M453.198 517.373C484.604 528.213 510.598 549.172 540.364 562.948C545.661 565.408 551.04 567.704 556.419 570H578.608C577.46 569.836 576.345 569.623 575.263 569.41C548.482 564.145 527.244 549.566 508.548 530.033C478.536 498.709 485.046 429.961 520.503 405.197C540.2 391.437 559.338 376.841 578.116 361.868C583.66 357.456 588.793 348.584 582.298 343.123C575.558 337.465 572.737 347.436 568.719 351.536C561.405 359.014 554.746 367.526 546.317 373.463C513.763 396.373 484.423 421.383 476.371 463.335C474.944 470.747 471.713 478.439 462.3 475.93C455.002 473.978 454.575 466.549 455.904 460.137C463.12 425.073 486.424 401.474 512.943 380.072C528.064 367.87 546.448 358.489 553.68 338.777C559.65 322.508 551.171 306.682 550.417 290.528C549.794 277.178 552.368 262.418 543.66 251.135C537.166 242.722 525.833 237.982 519.65 229.421C503.054 206.461 508.728 180.566 514.96 156.048C521.832 129.053 527.949 102.715 521.487 74.5891C515.452 48.3163 515.813 21.9943 527.883 -3.03212C529.982 -7.37812 533.262 -11.4289 538.74 -10.2645C544.398 -9.06732 545.136 -4.03252 545.12 0.903885C545.021 21.2071 538.937 40.9691 541.02 61.5839C542.971 80.9359 555.894 95.1875 570.638 91.6779C596.238 85.5935 624.496 98.9267 633.614 123.412C642.667 147.717 637.616 174.252 643.11 199.295C645.701 211.103 647.439 223.239 656.033 232.406V193.883C651.277 180.927 650.129 167.183 649.85 153.653C648.981 111.079 629.694 83.6091 588.563 70.6695C562.241 62.3875 553.287 44.6919 554.927 9.02189C555.517 -3.65531 559.683 -18.6285 542.594 -22.1545C526.801 -25.4181 522.57 -10.7401 517.896 0.493889C511.286 16.3691 501.266 29.4891 489.606 42.0023C477.765 54.6959 490.245 63.9127 496.805 73.1623C518.552 103.847 515.304 137.122 501.053 167.741C484.587 203.099 491.688 229.372 517.256 256.547C543.135 284.083 546.382 327.215 526.801 353.569C511.516 374.135 487.687 385.91 469.86 404.065C448.638 425.68 423.645 445.459 419.758 478.144C416.937 501.497 434.731 510.993 453.198 517.373Z" fill="#DCEAFF" fill-opacity="0.4"/>
<path d="M404.244 132.497C403.916 130.808 400.767 128.889 398.635 128.463C380.693 124.937 362.03 125.56 344.728 118.164C338.578 115.54 335.462 120.05 334.97 125.56C332.576 152.391 320.686 171.546 294.052 180.746C278.505 186.109 263.04 193.932 259.382 211.906C256.824 224.469 257.792 237.802 257.562 250.791C257.267 267.388 248.608 275.292 232.618 272.193C218.464 269.47 204.623 263.911 190.42 263.009C159.9 261.041 141.302 281.738 124.263 302.943C116.194 312.98 117.572 324.279 127.805 333.053C134.562 338.842 141.794 336.727 148.207 332.151C155.866 326.673 162.344 318.769 170.74 315.21C214.315 296.711 256.644 305.567 295.512 327.658C330.132 347.321 337.676 374.086 321.916 400.49C307.32 424.926 282.228 431.978 257.66 440.227C224.811 451.248 195.996 466.647 187.108 504.548C182.319 524.999 172.02 542.202 149.191 545.761C128.56 548.975 115.489 535.298 102.566 521.801C91.6432 510.403 81.508 497.545 66.0428 491.887C39.0648 481.998 19.0404 495.495 0 511.665V535.232C5.6416 526.983 10.8404 518.373 19.352 512.502C44.5424 495.118 66.0756 499.234 85.0996 523.916C97.99 540.661 111.848 556.667 128.396 570H190.306C181.138 531.411 198.407 501.612 224.713 475.618C241.506 459.021 264.811 452.921 285.163 442.047C312.158 427.632 334.921 409.116 340.956 376.858C345.368 353.209 328.607 341.696 312.682 329.757C301.153 321.114 286.442 315.112 283.9 298.302C283.49 295.628 284.95 292.676 285.54 289.855C286.869 290.495 288.542 290.823 289.46 291.824C291.559 294.136 293.166 296.875 295.151 299.302C307.713 314.537 323.802 325.804 338.972 338.088C359.718 354.898 359.078 375.201 342.514 404.41C320.817 442.622 284.737 461.629 248.722 481.342C222.253 495.839 197.604 536.725 212.167 569.984H232.716C214.2 531.427 234.799 490.838 272.847 477.914C289.591 472.224 308.025 469.386 319.488 453.413C332.838 434.832 340.038 412.413 356.093 395.422C363.686 387.386 371.804 378.793 370.492 366.444C368.754 350.142 354.47 343.533 343.859 334.316C324.228 317.26 300.366 303.139 292.133 276.949C281.03 241.672 299.825 214.727 322.03 190.094C343.022 166.823 372.657 156.802 398.651 141.189C401.8 139.303 405.047 136.565 404.244 132.497ZM297.594 209.2C286.852 228.634 283.064 249.807 279.817 271.471C275.979 297.153 256.906 309.125 231.601 298.744C198.063 284.968 170.166 288.773 145.238 315.144C142.418 318.129 136.546 322.491 134.103 318.162C129.888 310.7 136.432 304.369 141.089 298.974C164.886 271.487 192.897 266.961 226.189 281.229C238.981 286.707 256.824 294.349 264.63 273.259C268.616 262.484 268.222 250.069 269.796 238.409C270.469 224.452 269.6 209.807 280.85 199.032C285.622 194.473 292.035 190.045 298.185 194.014C304.236 197.901 300.235 204.411 297.594 209.2Z" fill="#DCEAFF" fill-opacity="0.4"/>
<path d="M307.434 375.217C303.039 370.97 297.299 382.384 292.724 387.288C282.851 397.849 271.436 403.95 257.185 398.046C243.835 392.519 230.863 389.256 216.71 394.717C187.583 405.967 162.622 426.189 130.659 431.847C103.32 436.685 71.9468 421.646 63.4516 395.242C56.7768 374.529 62.2216 352.438 57.0228 331.446C48.708 297.908 33.128 270.044 0 255.612V271.192C25.0428 283.476 36.408 306.255 42.7056 331.577C51.2172 365.82 56.1208 400.982 45.018 435.438C38.1956 456.578 20.2704 467.549 0 474.47V487.902C46.5268 453.167 83.1972 464.581 117.67 504.302C135.874 525.277 154.832 525.36 165.05 499.612C180.334 461.104 204.016 433.126 244.934 421.4C264.532 415.791 286.541 415.43 301.383 398.341C307.188 391.65 314.421 381.958 307.434 375.217ZM233.552 413.905C206.656 428.042 185.763 450.657 159.752 465.959C150.47 471.42 140.236 474.109 128.1 474.175C110.602 473.503 93.7588 466.812 78.3264 456.447C75.03 454.233 70.4544 450.903 73.1276 445.852C76.6536 439.161 83.1972 439.915 88.7732 442.195C130.298 459.235 162.901 439.571 195.209 417.218C206.099 409.674 217.382 402.097 231.847 403.294C234.914 403.54 237.702 404.951 237.669 407.427C237.669 409.641 235.602 412.839 233.552 413.905Z" fill="#DCEAFF" fill-opacity="0.4"/>
<path d="M277.882 336.825C246.508 323.443 213.348 328.264 180.728 330.806C174.086 331.315 167.116 337.465 168.412 345.484C169.281 350.781 176.448 349.978 180.662 348.945C204.278 343.221 228.058 339.662 252.298 343.483C259.481 344.615 270.534 343.779 270.518 354.012C270.485 364.656 260.006 363.852 252.494 363.196C230.256 361.228 208.346 358.801 186.337 366.427C140.187 382.417 113.062 370.609 101.598 323.131C88.0516 267.059 53.7428 237.851 0 227.453V236.391C0.3608 236.441 0.7216 236.523 1.0824 236.637C46.3792 251.069 82.5576 304.583 84.8536 359.555C85.5916 377.136 88.9044 394.701 105.829 404.393C125.198 415.479 143.352 407.099 159.687 396.718C189.978 377.481 219.366 359.244 257.906 374.988C268.353 379.252 281.834 374.315 287.476 362.114C292.33 351.601 287.59 340.974 277.882 336.825Z" fill="#DCEAFF" fill-opacity="0.4"/>
<path d="M194.881 104.142C186.632 92.1043 169.314 90.6283 154.242 101.321C141.942 110.046 131.676 122.116 115.112 123.199C89.1176 124.888 72.5208 108.849 56.0716 92.2683C33.702 69.7347 27.1748 68.4063 0 82.2971V104.24C25.7644 91.4483 44.9196 107.848 65.4688 119.837C101.942 141.124 125.444 138.582 161.032 111.095C166.001 107.258 172.758 101.895 177.874 107.717C184.057 114.769 178.776 122.789 173.299 128.168C148.732 152.341 118.884 152.965 87.412 146.946C66.2888 142.911 49.4132 128.693 28.8312 123.641C18.2696 121.05 9.0036 124.658 0.0164 129.381V149.537C10.0696 141.353 21.2872 134.679 34.4728 138.729C55.5304 145.191 75.5712 155.129 96.76 161.017C126.132 169.184 156.112 175.449 184.172 155.507C199.916 144.305 205.344 119.41 194.881 104.142Z" fill="#DCEAFF" fill-opacity="0.4"/>
<path d="M656 257.826C651.802 253.251 647.357 248.839 644.077 243.673C626.775 216.531 626.267 185.207 623.2 154.67C620.412 126.872 597.157 107.569 570.228 111.555C547.35 114.949 530.442 137.68 529.458 164.937C528.834 182.337 525.112 200 536.132 215.662C542.069 224.091 554.648 224.321 559.847 233.735C567.407 247.379 562.7 262.32 563.668 276.653C564.931 295.448 570.08 312.225 586.513 323.279C610.752 339.58 626.956 337.399 655.967 313.816V257.826H656ZM628.284 324.099C610.572 328.887 596.927 321.032 586.464 307.289C577.149 295.054 575.574 280.425 575.443 265.583C575.378 248.773 580.347 230.389 564.619 217.712C555.681 210.496 542.791 208.938 538.789 194.998C530.638 166.659 545.841 132.399 570.818 125.511C590.384 120.115 608.489 135.925 614.82 163.165C621.429 191.57 618.362 222.14 633.548 248.56C640.863 261.287 650.916 272.816 651.408 288.396C651.916 305.419 646.144 319.277 628.284 324.099Z" fill="#DCEAFF" fill-opacity="0.4"/>
<path d="M133.906 -85.9997H106.272C100.975 -76.0285 95.0872 -66.3033 90.8396 -55.9057C83.6072 -38.2265 89.0848 -24.0569 104.976 -13.5281C111.044 -9.51011 118.506 -5.98411 118.654 2.78989C118.687 4.97109 116.178 8.57909 114.16 9.16949C104.812 11.8919 97.1864 7.20149 90.9708 1.10069C65.8132 -23.5649 61.7132 -54.1017 78.9004 -84.8025C79.1136 -85.1797 79.294 -85.5897 79.458 -85.9997H67.0104C54.53 -59.2185 60.5652 -15.8569 80.6224 5.6599C90.528 16.2871 102.221 24.8315 117.604 18.3699C130.79 12.8267 131.512 -0.0801115 130.954 -12.0685C129.855 -36.8325 128.182 -61.5637 133.906 -85.9997Z" fill="#DCEAFF" fill-opacity="0.4"/>
<path d="M656 16.7955C635.074 27.6359 617.722 18.3863 600.01 6.16829C592.663 1.10069 582.856 -14.0365 573.852 0.96949C566.833 12.6299 570.622 27.4883 580.347 38.6567C593.057 53.2363 612.179 57.0903 628.054 66.4055C638.813 72.7359 647.734 80.9687 656.016 90.0215V16.7955H656Z" fill="#DCEAFF" fill-opacity="0.4"/>
<path d="M168.526 -85.9997H155.636C154.947 -84.0153 154.242 -82.0309 153.734 -79.9973C146.649 -51.9205 152.422 -22.9581 147.961 5.33189C144.91 24.6511 130.183 42.9699 112.602 46.0531C96.6616 48.8411 83.0988 42.1827 74.4232 29.0135C51.4468 -5.90211 40.426 -44.0157 46.3956 -85.9997H32.8C32.3408 -83.6381 31.7668 -81.2601 31.9308 -78.9477C35.0304 -37.0457 47.642 2.83909 69.5688 37.6235C87.3136 65.7823 119.54 74.2447 145.468 42.7239C162.475 22.0271 164.59 -2.52371 164.787 -27.8617C164.951 -47.2957 162.294 -66.9921 168.526 -85.9997Z" fill="#DCEAFF" fill-opacity="0.4"/>
<path d="M541.577 533.15C508.892 493.101 511.286 449.641 547.399 412.856C577.411 382.286 617.148 375.3 656.016 365.902V337.678C616.492 350.454 585.677 378.006 551.729 400.211C494.362 437.734 493.312 508.55 549.236 546.598C551.073 547.844 553.156 548.746 555.124 549.796C553.844 548.139 552.598 546.45 551.27 544.826C548.055 540.923 544.759 537.069 541.577 533.15Z" fill="#DCEAFF" fill-opacity="0.4"/>
<path d="M592.86 508.631C612.589 524.31 630.252 541.907 627.382 570H645.274C641.109 540.628 624.414 519.209 601.322 501.35C589.514 492.215 581.741 479.849 586.202 464.122C590.679 448.378 602.716 442.015 618.575 442.802C632.991 443.523 643.979 452.445 656 458.857V443.081C649.391 440.67 642.667 438.521 636.369 435.471C614.721 424.959 590.416 430.485 579.363 448.87C567.604 468.435 574.148 493.773 592.86 508.631Z" fill="#DCEAFF" fill-opacity="0.4"/>
<path d="M25.3544 338.662C22.1564 321.655 15.5472 305.796 0 295.94V318.998C13.12 336.317 14.6944 356.866 15.006 377.661C15.2192 392.028 11.0044 404.672 0 414.233V449.264C9.758 445.574 16.3016 438.079 20.7788 429.059C35.342 399.719 31.0452 369.002 25.3544 338.662Z" fill="#DCEAFF" fill-opacity="0.4"/>
<path d="M35.4896 -9.37908C29.3724 -34.9303 14.4976 -58.4643 16.8264 -85.9999H7.0356C4.428 -66.9431 12.956 -50.1823 18.778 -32.9131C28.5852 -3.81948 22.222 21.4365 0 40.4277V60.2389C24.026 55.0565 42.2136 18.6649 35.4896 -9.37908Z" fill="#DCEAFF" fill-opacity="0.4"/>
<path d="M22.2384 570C26.4204 552.78 35.5388 539.742 55.5468 540.612C73.0292 541.382 80.6388 557.979 91.7908 568.623C92.25 569.049 92.6764 569.525 93.0864 570H104.73C99.6136 563.604 94.6116 557.126 89.1504 551.042C77.8508 538.496 68.9292 521.85 49.774 520.472C24.2884 518.619 13.4152 544.597 7.4128 570H22.2384Z" fill="#DCEAFF" fill-opacity="0.4"/>
<path d="M656 -72.6993C647.833 -67.1561 640.584 -60.1041 630.564 -57.5621C609.227 -52.1337 593.86 -62.9741 579.182 -76.0285C575.328 -79.4561 571.343 -82.7197 567.374 -86.0161H533.295C548.941 -83.5889 561.93 -74.9625 574.426 -65.3193C599.125 -46.2461 623.987 -28.2717 656 -47.5909V-72.6993Z" fill="#DCEAFF" fill-opacity="0.4"/>
<path d="M597.206 -85.9997C603.536 -79.4069 610.31 -73.2733 619.986 -72.5517C630.596 -71.7645 636.96 -78.6525 642.847 -85.9997H597.206Z" fill="#DCEAFF" fill-opacity="0.4"/>
<path d="M6.4452 -24.8113C5.3792 -32.9621 4.4772 -41.4245 0 -48.6733V15.6311C0.082 15.5491 0.1476 15.4671 0.2132 15.3851C7.6752 2.83909 8.2492 -10.9697 6.4452 -24.8113Z" fill="#DCEAFF" fill-opacity="0.4"/>
<path d="M71.8976 570C68.142 564.031 63.2384 559.029 55.924 558.75C48.38 558.471 43.9684 563.522 41.3444 570H71.8976Z" fill="#DCEAFF" fill-opacity="0.4"/>
<path d="M446.441 331.79C444.916 344.09 445.883 360.704 428.762 367.346C417.757 371.626 420.234 361.196 419.397 355.538C417.134 340.433 408.229 329.986 396.404 321.36C392.058 318.195 384.957 315.784 386.187 309.47C387.876 300.827 396.109 297.104 403.571 294.398C430.024 284.788 446.441 298.351 446.441 331.79Z" fill="#DCEAFF" fill-opacity="0.4"/>
<path d="M269.14 125.823C269.649 139.221 265.729 149.816 251.346 153.588C242.458 155.917 240.785 149.553 240.916 143.42C241.326 125.462 242.277 107.52 243.474 89.5951C243.77 85.1999 245.114 79.7223 250.822 79.4435C259.005 79.0335 260.94 86.3315 263.138 92.0223C267.271 102.83 269.255 114.179 269.14 125.823Z" fill="#DCEAFF" fill-opacity="0.4"/>
<path d="M307.205 31.2603C292.199 21.9123 273.355 13.0727 258.267 -0.0801086C244.836 -11.7897 248.936 -40.0797 262.433 -45.6557C275.422 -51.0349 283.736 -40.6537 292.658 -34.0937C302.974 -26.5169 313.601 -23.5157 326.59 -25.6969C344.761 -28.7473 349.484 -22.2857 343.777 -2.04811C339.07 14.6307 329.296 27.1439 307.205 31.2603Z" fill="#DCEAFF" fill-opacity="0.4"/>
<path d="M333.478 544.285C319.882 543.514 318.209 536.462 323.506 526.327C330.739 512.453 338.266 498.71 346.04 485.147C348.385 481.047 351.616 475.93 357.126 477.209C363.621 478.718 365.917 485.36 365.556 490.821C364.605 505.253 365.72 520.472 356.126 532.936C350.386 540.382 342.186 543.432 333.478 544.285Z" fill="#DCEAFF" fill-opacity="0.4"/>
<path d="M592.778 261.024C593.221 240.606 596.501 219.598 580.363 202.706C573.196 195.211 560.454 194.473 556.173 183.862C550.728 170.365 560.437 152.194 576.198 149.635C593.582 146.815 595.058 163.018 598.338 174.104C606.734 202.526 603.881 233.669 618.624 260.631C623.905 270.307 631.515 278.9 633.286 290.167C634.303 296.629 632.351 302.943 625.398 305.108C612.983 308.945 605.406 301.598 599.289 292.201C593.09 282.705 592.204 271.996 592.778 261.024Z" fill="#DCEAFF" fill-opacity="0.4"/>
</g>
<defs>
<clipPath id="clip0_203_303">
<rect width="656" height="504" fill="white"/>
</clipPath>
</defs>
</svg>
