<svg width="302" height="33" viewBox="0 0 302 33" fill="none" xmlns="http://www.w3.org/2000/svg">
<path d="M12.376 26.3844C10.0934 26.3844 8.02405 25.8937 6.16805 24.9124C4.33338 23.9097 2.88271 22.5337 1.81605 20.7844C0.770714 19.0137 0.248047 17.0191 0.248047 14.8004C0.248047 12.5817 0.770714 10.5977 1.81605 8.84841C2.88271 7.07774 4.33338 5.70174 6.16805 4.72041C8.02405 3.71774 10.104 3.21641 12.408 3.21641C14.3494 3.21641 16.0987 3.55774 17.656 4.24041C19.2347 4.92307 20.5574 5.90441 21.624 7.18441L18.296 10.2564C16.7814 8.50707 14.904 7.63241 12.664 7.63241C11.2774 7.63241 10.04 7.94174 8.95205 8.56041C7.86405 9.15774 7.01071 10.0004 6.39205 11.0884C5.79471 12.1764 5.49605 13.4137 5.49605 14.8004C5.49605 16.1871 5.79471 17.4244 6.39205 18.5124C7.01071 19.6004 7.86405 20.4537 8.95205 21.0724C10.04 21.6697 11.2774 21.9684 12.664 21.9684C14.904 21.9684 16.7814 21.0831 18.296 19.3124L21.624 22.3844C20.5574 23.6857 19.2347 24.6777 17.656 25.3604C16.0774 26.0431 14.3174 26.3844 12.376 26.3844Z" fill="#0C78F1"/>
<path d="M31.5918 8.52841C34.2585 8.52841 36.3065 9.16841 37.7358 10.4484C39.1651 11.7071 39.8798 13.6164 39.8798 16.1764V26.0004H35.2078V23.8564C34.2691 25.4564 32.5198 26.2564 29.9598 26.2564C28.6371 26.2564 27.4851 26.0324 26.5038 25.5844C25.5438 25.1364 24.8078 24.5177 24.2958 23.7284C23.7838 22.9391 23.5278 22.0431 23.5278 21.0404C23.5278 19.4404 24.1251 18.1817 25.3198 17.2644C26.5358 16.3471 28.4025 15.8884 30.9198 15.8884H34.8878C34.8878 14.8004 34.5571 13.9684 33.8958 13.3924C33.2345 12.7951 32.2425 12.4964 30.9198 12.4964C30.0025 12.4964 29.0958 12.6457 28.1998 12.9444C27.3251 13.2217 26.5785 13.6057 25.9598 14.0964L24.1678 10.6084C25.1065 9.94707 26.2265 9.43507 27.5278 9.07241C28.8505 8.70974 30.2051 8.52841 31.5918 8.52841ZM31.2078 22.8964C32.0611 22.8964 32.8185 22.7044 33.4798 22.3204C34.1411 21.9151 34.6105 21.3284 34.8878 20.5604V18.8004H31.4638C29.4158 18.8004 28.3918 19.4724 28.3918 20.8164C28.3918 21.4564 28.6371 21.9684 29.1278 22.3524C29.6398 22.7151 30.3331 22.8964 31.2078 22.8964Z" fill="#0C78F1"/>
<path d="M66.4458 8.52841C68.6005 8.52841 70.3071 9.16841 71.5658 10.4484C72.8458 11.7071 73.4858 13.6057 73.4858 16.1444V26.0004H68.4938V16.9124C68.4938 15.5471 68.2058 14.5337 67.6298 13.8724C67.0751 13.1897 66.2751 12.8484 65.2298 12.8484C64.0565 12.8484 63.1285 13.2324 62.4458 14.0004C61.7631 14.7471 61.4218 15.8671 61.4218 17.3604V26.0004H56.4298V16.9124C56.4298 14.2031 55.3418 12.8484 53.1658 12.8484C52.0138 12.8484 51.0965 13.2324 50.4138 14.0004C49.7311 14.7471 49.3898 15.8671 49.3898 17.3604V26.0004H44.3978V8.78441H49.1658V10.7684C49.8058 10.0431 50.5845 9.48841 51.5018 9.10441C52.4405 8.72041 53.4645 8.52841 54.5738 8.52841C55.7898 8.52841 56.8885 8.77374 57.8698 9.26441C58.8511 9.73374 59.6405 10.4271 60.2378 11.3444C60.9418 10.4484 61.8271 9.75507 62.8938 9.26441C63.9818 8.77374 65.1658 8.52841 66.4458 8.52841Z" fill="#0C78F1"/>
<path d="M88.1363 8.52841C89.7363 8.52841 91.187 8.90174 92.4883 9.64841C93.811 10.3737 94.8456 11.4084 95.5923 12.7524C96.339 14.0751 96.7123 15.6217 96.7123 17.3924C96.7123 19.1631 96.339 20.7204 95.5923 22.0644C94.8456 23.3871 93.811 24.4217 92.4883 25.1684C91.187 25.8937 89.7363 26.2564 88.1363 26.2564C85.939 26.2564 84.211 25.5631 82.9523 24.1764V32.2084H77.9603V8.78441H82.7283V10.7684C83.9656 9.27507 85.7683 8.52841 88.1363 8.52841ZM87.2723 22.1604C88.5523 22.1604 89.5976 21.7337 90.4083 20.8804C91.2403 20.0057 91.6563 18.8431 91.6563 17.3924C91.6563 15.9417 91.2403 14.7897 90.4083 13.9364C89.5976 13.0617 88.5523 12.6244 87.2723 12.6244C85.9923 12.6244 84.9363 13.0617 84.1043 13.9364C83.2936 14.7897 82.8883 15.9417 82.8883 17.3924C82.8883 18.8431 83.2936 20.0057 84.1043 20.8804C84.9363 21.7337 85.9923 22.1604 87.2723 22.1604Z" fill="#0C78F1"/>
<path d="M117.398 8.78441V26.0004H112.662V23.9524C112.001 24.6991 111.211 25.2751 110.294 25.6804C109.377 26.0644 108.385 26.2564 107.318 26.2564C105.057 26.2564 103.265 25.6057 101.942 24.3044C100.619 23.0031 99.958 21.0724 99.958 18.5124V8.78441H104.95V17.7764C104.95 20.5497 106.113 21.9364 108.438 21.9364C109.633 21.9364 110.593 21.5524 111.318 20.7844C112.043 19.9951 112.406 18.8324 112.406 17.2964V8.78441H117.398Z" fill="#0C78F1"/>
<path d="M127.815 26.2564C126.385 26.2564 124.988 26.0857 123.623 25.7444C122.257 25.3817 121.169 24.9337 120.359 24.4004L122.023 20.8164C122.791 21.3071 123.719 21.7124 124.807 22.0324C125.895 22.3311 126.961 22.4804 128.007 22.4804C130.119 22.4804 131.175 21.9577 131.175 20.9124C131.175 20.4217 130.887 20.0697 130.311 19.8564C129.735 19.6431 128.849 19.4617 127.655 19.3124C126.247 19.0991 125.084 18.8537 124.167 18.5764C123.249 18.2991 122.449 17.8084 121.767 17.1044C121.105 16.4004 120.775 15.3977 120.775 14.0964C120.775 13.0084 121.084 12.0484 121.703 11.2164C122.343 10.3631 123.26 9.70174 124.455 9.23241C125.671 8.76307 127.1 8.52841 128.743 8.52841C129.959 8.52841 131.164 8.66707 132.359 8.94441C133.575 9.20041 134.577 9.56307 135.367 10.0324L133.703 13.5844C132.188 12.7311 130.535 12.3044 128.743 12.3044C127.676 12.3044 126.876 12.4537 126.343 12.7524C125.809 13.0511 125.543 13.4351 125.543 13.9044C125.543 14.4377 125.831 14.8111 126.407 15.0244C126.983 15.2377 127.9 15.4404 129.159 15.6324C130.567 15.8671 131.719 16.1231 132.615 16.4004C133.511 16.6564 134.289 17.1364 134.951 17.8404C135.612 18.5444 135.943 19.5257 135.943 20.7844C135.943 21.8511 135.623 22.8004 134.983 23.6324C134.343 24.4644 133.404 25.1151 132.167 25.5844C130.951 26.0324 129.5 26.2564 127.815 26.2564Z" fill="#0C78F1"/>
<path d="M144.015 7.82441H136.847V3.60041H156.367V7.82441H149.199V26.0004H144.015V7.82441Z" fill="#0C78F1"/>
<path d="M173.918 17.4564C173.918 17.5204 173.886 17.9684 173.822 18.8004H160.798C161.033 19.8671 161.587 20.7097 162.462 21.3284C163.337 21.9471 164.425 22.2564 165.726 22.2564C166.622 22.2564 167.411 22.1284 168.094 21.8724C168.798 21.5951 169.449 21.1684 170.046 20.5924L172.702 23.4724C171.081 25.3284 168.713 26.2564 165.598 26.2564C163.657 26.2564 161.939 25.8831 160.446 25.1364C158.953 24.3684 157.801 23.3124 156.99 21.9684C156.179 20.6244 155.774 19.0991 155.774 17.3924C155.774 15.7071 156.169 14.1924 156.958 12.8484C157.769 11.4831 158.867 10.4271 160.254 9.68041C161.662 8.91241 163.23 8.52841 164.958 8.52841C166.643 8.52841 168.169 8.89107 169.534 9.61641C170.899 10.3417 171.966 11.3871 172.734 12.7524C173.523 14.0964 173.918 15.6644 173.918 17.4564ZM164.99 12.3044C163.859 12.3044 162.91 12.6244 162.142 13.2644C161.374 13.9044 160.905 14.7791 160.734 15.8884H169.214C169.043 14.8004 168.574 13.9364 167.806 13.2964C167.038 12.6351 166.099 12.3044 164.99 12.3044Z" fill="#0C78F1"/>
<path d="M185.562 26.2564C183.727 26.2564 182.074 25.8831 180.602 25.1364C179.151 24.3684 178.01 23.3124 177.178 21.9684C176.367 20.6244 175.962 19.0991 175.962 17.3924C175.962 15.6857 176.367 14.1604 177.178 12.8164C178.01 11.4724 179.151 10.4271 180.602 9.68041C182.074 8.91241 183.727 8.52841 185.562 8.52841C187.375 8.52841 188.954 8.91241 190.298 9.68041C191.663 10.4271 192.655 11.5044 193.274 12.9124L189.402 14.9924C188.506 13.4137 187.215 12.6244 185.53 12.6244C184.228 12.6244 183.151 13.0511 182.298 13.9044C181.444 14.7577 181.018 15.9204 181.018 17.3924C181.018 18.8644 181.444 20.0271 182.298 20.8804C183.151 21.7337 184.228 22.1604 185.53 22.1604C187.236 22.1604 188.527 21.3711 189.402 19.7924L193.274 21.9044C192.655 23.2697 191.663 24.3364 190.298 25.1044C188.954 25.8724 187.375 26.2564 185.562 26.2564Z" fill="#0C78F1"/>
<path d="M206.487 8.52841C208.62 8.52841 210.337 9.16841 211.639 10.4484C212.961 11.7284 213.623 13.6271 213.623 16.1444V26.0004H208.631V16.9124C208.631 15.5471 208.332 14.5337 207.735 13.8724C207.137 13.1897 206.273 12.8484 205.143 12.8484C203.884 12.8484 202.881 13.2431 202.135 14.0324C201.388 14.8004 201.015 15.9524 201.015 17.4884V26.0004H196.023V2.25641H201.015V10.5764C201.676 9.91507 202.476 9.41374 203.415 9.07241C204.353 8.70974 205.377 8.52841 206.487 8.52841Z" fill="#0C78F1"/>
<path d="M239.044 3.60041V26.0004H233.86V16.8164H223.684V26.0004H218.5V3.60041H223.684V12.4324H233.86V3.60041H239.044Z" fill="#0C78F1"/>
<path d="M243.992 8.78441H248.984V26.0004H243.992V8.78441ZM246.488 6.38441C245.57 6.38441 244.824 6.11774 244.248 5.58441C243.672 5.05107 243.384 4.38974 243.384 3.60041C243.384 2.81107 243.672 2.14974 244.248 1.61641C244.824 1.08307 245.57 0.816406 246.488 0.816406C247.405 0.816406 248.152 1.07241 248.728 1.58441C249.304 2.09641 249.592 2.73641 249.592 3.50441C249.592 4.33641 249.304 5.02974 248.728 5.58441C248.152 6.11774 247.405 6.38441 246.488 6.38441Z" fill="#0C78F1"/>
<path d="M258.385 11.0564C258.982 10.2244 259.782 9.59507 260.785 9.16841C261.809 8.74174 262.982 8.52841 264.305 8.52841V13.1364C263.75 13.0937 263.377 13.0724 263.185 13.0724C261.755 13.0724 260.635 13.4777 259.825 14.2884C259.014 15.0777 258.609 16.2724 258.609 17.8724V26.0004H253.617V8.78441H258.385V11.0564Z" fill="#0C78F1"/>
<path d="M283.981 17.4564C283.981 17.5204 283.949 17.9684 283.885 18.8004H270.861C271.095 19.8671 271.65 20.7097 272.525 21.3284C273.399 21.9471 274.487 22.2564 275.789 22.2564C276.685 22.2564 277.474 22.1284 278.157 21.8724C278.861 21.5951 279.511 21.1684 280.109 20.5924L282.765 23.4724C281.143 25.3284 278.775 26.2564 275.661 26.2564C273.719 26.2564 272.002 25.8831 270.509 25.1364C269.015 24.3684 267.863 23.3124 267.053 21.9684C266.242 20.6244 265.837 19.0991 265.837 17.3924C265.837 15.7071 266.231 14.1924 267.021 12.8484C267.831 11.4831 268.93 10.4271 270.317 9.68041C271.725 8.91241 273.293 8.52841 275.021 8.52841C276.706 8.52841 278.231 8.89107 279.597 9.61641C280.962 10.3417 282.029 11.3871 282.797 12.7524C283.586 14.0964 283.981 15.6644 283.981 17.4564ZM275.053 12.3044C273.922 12.3044 272.973 12.6244 272.205 13.2644C271.437 13.9044 270.967 14.7791 270.797 15.8884H279.277C279.106 14.8004 278.637 13.9364 277.869 13.2964C277.101 12.6351 276.162 12.3044 275.053 12.3044Z" fill="#0C78F1"/>
<path d="M293.096 26.2564C291.667 26.2564 290.269 26.0857 288.904 25.7444C287.539 25.3817 286.451 24.9337 285.64 24.4004L287.304 20.8164C288.072 21.3071 289 21.7124 290.088 22.0324C291.176 22.3311 292.243 22.4804 293.288 22.4804C295.4 22.4804 296.456 21.9577 296.456 20.9124C296.456 20.4217 296.168 20.0697 295.592 19.8564C295.016 19.6431 294.131 19.4617 292.936 19.3124C291.528 19.0991 290.365 18.8537 289.448 18.5764C288.531 18.2991 287.731 17.8084 287.048 17.1044C286.387 16.4004 286.056 15.3977 286.056 14.0964C286.056 13.0084 286.365 12.0484 286.984 11.2164C287.624 10.3631 288.541 9.70174 289.736 9.23241C290.952 8.76307 292.381 8.52841 294.024 8.52841C295.24 8.52841 296.445 8.66707 297.64 8.94441C298.856 9.20041 299.859 9.56307 300.648 10.0324L298.984 13.5844C297.469 12.7311 295.816 12.3044 294.024 12.3044C292.957 12.3044 292.157 12.4537 291.624 12.7524C291.091 13.0511 290.824 13.4351 290.824 13.9044C290.824 14.4377 291.112 14.8111 291.688 15.0244C292.264 15.2377 293.181 15.4404 294.44 15.6324C295.848 15.8671 297 16.1231 297.896 16.4004C298.792 16.6564 299.571 17.1364 300.232 17.8404C300.893 18.5444 301.224 19.5257 301.224 20.7844C301.224 21.8511 300.904 22.8004 300.264 23.6324C299.624 24.4644 298.685 25.1151 297.448 25.5844C296.232 26.0324 294.781 26.2564 293.096 26.2564Z" fill="#0C78F1"/>
</svg>
